<mxfile host="app.diagrams.net" modified="2020-12-22T03:26:28.703Z" agent="5.0 (X11; Linux x86_64) AppleWebKit/537.36 (KHTML, like Gecko) Chrome/87.0.4280.88 Safari/537.36" etag="LmSAFHUtr5MjPJj4ujrw" version="14.1.1" type="github">
  <diagram name="Page-1" id="74e2e168-ea6b-b213-b513-2b3c1d86103e">
    <mxGraphModel dx="1422" dy="798" grid="1" gridSize="10" guides="1" tooltips="1" connect="1" arrows="1" fold="1" page="1" pageScale="1" pageWidth="1100" pageHeight="850" background="#ffffff" math="0" shadow="0">
      <root>
        <mxCell id="0" />
        <mxCell id="1" parent="0" />
        <mxCell id="77e6c97f196da883-1" value="微信授权（关注公众号）" style="swimlane;html=1;childLayout=stackLayout;startSize=20;rounded=0;shadow=0;labelBackgroundColor=none;strokeWidth=1;fontFamily=Verdana;fontSize=8;align=center;" parent="1" vertex="1">
          <mxGeometry x="70" y="40" width="870" height="1710" as="geometry" />
        </mxCell>
        <mxCell id="77e6c97f196da883-2" value="用户(浏览器)" style="swimlane;html=1;startSize=20;" parent="77e6c97f196da883-1" vertex="1">
          <mxGeometry y="20" width="230" height="1690" as="geometry" />
        </mxCell>
        <mxCell id="77e6c97f196da883-8" value="分享页" style="ellipse;whiteSpace=wrap;html=1;aspect=fixed;shadow=0;fontFamily=Verdana;fontSize=8;fontColor=#000000;align=center;strokeColor=#000000;strokeWidth=1;fillColor=#ffffff;" parent="77e6c97f196da883-2" vertex="1">
          <mxGeometry x="80" y="65" width="100" height="60" as="geometry" />
        </mxCell>
        <mxCell id="tbGh9AGM3X3flpmvFjvH-10" value="静默同意授权" style="rhombus;whiteSpace=wrap;html=1;rounded=0;glass=0;" parent="77e6c97f196da883-2" vertex="1">
          <mxGeometry x="90" y="240" width="80" height="80" as="geometry" />
        </mxCell>
        <mxCell id="tbGh9AGM3X3flpmvFjvH-24" value="302跳转&lt;br&gt;（form-preview-api）" style="rounded=0;whiteSpace=wrap;html=1;glass=0;" parent="77e6c97f196da883-2" vertex="1">
          <mxGeometry x="70" y="370" width="120" height="60" as="geometry" />
        </mxCell>
        <mxCell id="tbGh9AGM3X3flpmvFjvH-38" value="正常展示" style="ellipse;whiteSpace=wrap;html=1;aspect=fixed;fontFamily=Helvetica;fontSize=12;fontColor=#000000;align=center;strokeColor=#000000;fillColor=#ffffff;" parent="77e6c97f196da883-2" vertex="1">
          <mxGeometry x="70" y="890" width="120" height="60" as="geometry" />
        </mxCell>
        <mxCell id="tbGh9AGM3X3flpmvFjvH-45" value="展示二维码&lt;br&gt;（wxSubscribeQR）" style="whiteSpace=wrap;html=1;rounded=0;glass=0;" parent="77e6c97f196da883-2" vertex="1">
          <mxGeometry x="70" y="1090" width="120" height="60" as="geometry" />
        </mxCell>
        <mxCell id="tbGh9AGM3X3flpmvFjvH-66" style="edgeStyle=orthogonalEdgeStyle;rounded=0;orthogonalLoop=1;jettySize=auto;html=1;entryX=0;entryY=0.5;entryDx=0;entryDy=0;exitX=0;exitY=0.5;exitDx=0;exitDy=0;" parent="77e6c97f196da883-2" source="tbGh9AGM3X3flpmvFjvH-63" target="77e6c97f196da883-8" edge="1">
          <mxGeometry relative="1" as="geometry" />
        </mxCell>
        <mxCell id="tbGh9AGM3X3flpmvFjvH-63" value="微信消息" style="ellipse;whiteSpace=wrap;html=1;aspect=fixed;fontFamily=Helvetica;fontSize=12;fontColor=#000000;align=center;strokeColor=#000000;fillColor=#ffffff;" parent="77e6c97f196da883-2" vertex="1">
          <mxGeometry x="70" y="1593" width="120" height="60" as="geometry" />
        </mxCell>
        <mxCell id="77e6c97f196da883-26" style="edgeStyle=orthogonalEdgeStyle;rounded=1;html=1;labelBackgroundColor=none;startArrow=none;startFill=0;startSize=5;endArrow=classicThin;endFill=1;endSize=5;jettySize=auto;orthogonalLoop=1;strokeWidth=1;fontFamily=Verdana;fontSize=8;entryX=0;entryY=0.5;entryDx=0;entryDy=0;" parent="77e6c97f196da883-1" source="77e6c97f196da883-8" target="tbGh9AGM3X3flpmvFjvH-3" edge="1">
          <mxGeometry relative="1" as="geometry">
            <mxPoint x="190" y="115" as="targetPoint" />
          </mxGeometry>
        </mxCell>
        <mxCell id="tbGh9AGM3X3flpmvFjvH-17" value="" style="edgeStyle=orthogonalEdgeStyle;rounded=0;orthogonalLoop=1;jettySize=auto;html=1;" parent="77e6c97f196da883-1" source="tbGh9AGM3X3flpmvFjvH-14" target="tbGh9AGM3X3flpmvFjvH-16" edge="1">
          <mxGeometry relative="1" as="geometry" />
        </mxCell>
        <mxCell id="tbGh9AGM3X3flpmvFjvH-13" value="" style="edgeStyle=orthogonalEdgeStyle;rounded=0;orthogonalLoop=1;jettySize=auto;html=1;" parent="77e6c97f196da883-1" source="tbGh9AGM3X3flpmvFjvH-10" target="tbGh9AGM3X3flpmvFjvH-12" edge="1">
          <mxGeometry relative="1" as="geometry" />
        </mxCell>
        <mxCell id="tbGh9AGM3X3flpmvFjvH-41" value="Y" style="edgeLabel;html=1;align=center;verticalAlign=middle;resizable=0;points=[];" parent="tbGh9AGM3X3flpmvFjvH-13" vertex="1" connectable="0">
          <mxGeometry x="-0.4143" y="-2" relative="1" as="geometry">
            <mxPoint x="110" as="offset" />
          </mxGeometry>
        </mxCell>
        <mxCell id="tbGh9AGM3X3flpmvFjvH-15" value="" style="edgeStyle=orthogonalEdgeStyle;rounded=0;orthogonalLoop=1;jettySize=auto;html=1;exitX=0.5;exitY=1;exitDx=0;exitDy=0;entryX=0.5;entryY=0;entryDx=0;entryDy=0;" parent="77e6c97f196da883-1" source="tbGh9AGM3X3flpmvFjvH-12" target="tbGh9AGM3X3flpmvFjvH-24" edge="1">
          <mxGeometry relative="1" as="geometry" />
        </mxCell>
        <mxCell id="tbGh9AGM3X3flpmvFjvH-25" style="edgeStyle=orthogonalEdgeStyle;rounded=0;orthogonalLoop=1;jettySize=auto;html=1;" parent="77e6c97f196da883-1" source="tbGh9AGM3X3flpmvFjvH-24" target="tbGh9AGM3X3flpmvFjvH-14" edge="1">
          <mxGeometry relative="1" as="geometry" />
        </mxCell>
        <mxCell id="77e6c97f196da883-3" value="表单系统" style="swimlane;html=1;startSize=20;" parent="77e6c97f196da883-1" vertex="1">
          <mxGeometry x="230" y="20" width="290" height="1690" as="geometry" />
        </mxCell>
        <mxCell id="tbGh9AGM3X3flpmvFjvH-3" value="&lt;span style=&quot;font-family: &amp;#34;verdana&amp;#34; ; font-size: 8px&quot;&gt;需要强制关注&lt;/span&gt;" style="rhombus;whiteSpace=wrap;html=1;rounded=0;glass=0;" parent="77e6c97f196da883-3" vertex="1">
          <mxGeometry x="150" y="55" width="80" height="80" as="geometry" />
        </mxCell>
        <mxCell id="tbGh9AGM3X3flpmvFjvH-4" value="授权重定向" style="whiteSpace=wrap;html=1;rounded=0;glass=0;" parent="77e6c97f196da883-3" vertex="1">
          <mxGeometry x="130" y="170" width="120" height="60" as="geometry" />
        </mxCell>
        <mxCell id="tbGh9AGM3X3flpmvFjvH-5" value="" style="edgeStyle=orthogonalEdgeStyle;rounded=0;orthogonalLoop=1;jettySize=auto;html=1;" parent="77e6c97f196da883-3" source="tbGh9AGM3X3flpmvFjvH-3" target="tbGh9AGM3X3flpmvFjvH-4" edge="1">
          <mxGeometry relative="1" as="geometry" />
        </mxCell>
        <mxCell id="tbGh9AGM3X3flpmvFjvH-14" value="获取&lt;span style=&quot;color: rgb(53 , 53 , 53) ; font-family: , &amp;#34;blinkmacsystemfont&amp;#34; , &amp;#34;sf ui text&amp;#34; , &amp;#34;helvetica neue&amp;#34; , &amp;#34;pingfang sc&amp;#34; , &amp;#34;hiragino sans gb&amp;#34; , &amp;#34;microsoft yahei ui&amp;#34; , &amp;#34;microsoft yahei&amp;#34; , &amp;#34;arial&amp;#34; , sans-serif ; font-size: 14px ; text-align: left&quot;&gt;component_access_token&lt;/span&gt;" style="whiteSpace=wrap;html=1;rounded=0;glass=0;" parent="77e6c97f196da883-3" vertex="1">
          <mxGeometry x="140" y="370" width="120" height="60" as="geometry" />
        </mxCell>
        <mxCell id="tbGh9AGM3X3flpmvFjvH-18" value="&lt;span style=&quot;color: rgb(53 , 53 , 53) ; font-size: 14px ; text-align: left&quot;&gt;成功&lt;br&gt;component_access_token&lt;/span&gt;" style="rhombus;whiteSpace=wrap;html=1;rounded=0;glass=0;" parent="77e6c97f196da883-3" vertex="1">
          <mxGeometry x="160" y="470" width="80" height="80" as="geometry" />
        </mxCell>
        <mxCell id="tbGh9AGM3X3flpmvFjvH-20" value="code换&lt;span style=&quot;color: rgb(34 , 34 , 34) ; font-family: , &amp;#34;blinkmacsystemfont&amp;#34; , &amp;#34;sf ui text&amp;#34; , &amp;#34;helvetica neue&amp;#34; , &amp;#34;pingfang sc&amp;#34; , &amp;#34;hiragino sans gb&amp;#34; , &amp;#34;microsoft yahei ui&amp;#34; , &amp;#34;microsoft yahei&amp;#34; , &amp;#34;arial&amp;#34; , sans-serif ; font-size: 14px&quot;&gt;access_token&lt;/span&gt;" style="whiteSpace=wrap;html=1;rounded=0;glass=0;" parent="77e6c97f196da883-3" vertex="1">
          <mxGeometry x="140" y="590" width="120" height="60" as="geometry" />
        </mxCell>
        <mxCell id="tbGh9AGM3X3flpmvFjvH-21" value="" style="edgeStyle=orthogonalEdgeStyle;rounded=0;orthogonalLoop=1;jettySize=auto;html=1;" parent="77e6c97f196da883-3" edge="1">
          <mxGeometry relative="1" as="geometry">
            <mxPoint x="199" y="550" as="sourcePoint" />
            <mxPoint x="199" y="590" as="targetPoint" />
          </mxGeometry>
        </mxCell>
        <mxCell id="tbGh9AGM3X3flpmvFjvH-40" value="Y" style="edgeLabel;html=1;align=center;verticalAlign=middle;resizable=0;points=[];" parent="tbGh9AGM3X3flpmvFjvH-21" vertex="1" connectable="0">
          <mxGeometry x="-0.15" y="-4" relative="1" as="geometry">
            <mxPoint as="offset" />
          </mxGeometry>
        </mxCell>
        <mxCell id="tbGh9AGM3X3flpmvFjvH-26" value="&lt;span style=&quot;color: rgb(34 , 34 , 34) ; font-size: 14px&quot;&gt;access_token&lt;br&gt;openId&lt;br&gt;&lt;/span&gt;" style="whiteSpace=wrap;html=1;rounded=0;glass=0;" parent="77e6c97f196da883-3" vertex="1">
          <mxGeometry x="140" y="690" width="120" height="60" as="geometry" />
        </mxCell>
        <mxCell id="tbGh9AGM3X3flpmvFjvH-28" value="&lt;span style=&quot;color: rgb(34 , 34 , 34) ; font-family: , &amp;#34;blinkmacsystemfont&amp;#34; , &amp;#34;sf ui text&amp;#34; , &amp;#34;helvetica neue&amp;#34; , &amp;#34;pingfang sc&amp;#34; , &amp;#34;hiragino sans gb&amp;#34; , &amp;#34;microsoft yahei ui&amp;#34; , &amp;#34;microsoft yahei&amp;#34; , &amp;#34;arial&amp;#34; , sans-serif ; font-size: 14px&quot;&gt;获取用户信息&lt;br&gt;user/info&lt;/span&gt;" style="whiteSpace=wrap;html=1;rounded=0;glass=0;" parent="77e6c97f196da883-3" vertex="1">
          <mxGeometry x="140" y="790" width="120" height="60" as="geometry" />
        </mxCell>
        <mxCell id="tbGh9AGM3X3flpmvFjvH-29" value="" style="edgeStyle=orthogonalEdgeStyle;rounded=0;orthogonalLoop=1;jettySize=auto;html=1;" parent="77e6c97f196da883-3" source="tbGh9AGM3X3flpmvFjvH-26" target="tbGh9AGM3X3flpmvFjvH-28" edge="1">
          <mxGeometry relative="1" as="geometry" />
        </mxCell>
        <mxCell id="tbGh9AGM3X3flpmvFjvH-27" value="" style="edgeStyle=orthogonalEdgeStyle;rounded=0;orthogonalLoop=1;jettySize=auto;html=1;exitX=0.5;exitY=1;exitDx=0;exitDy=0;" parent="77e6c97f196da883-3" source="tbGh9AGM3X3flpmvFjvH-20" target="tbGh9AGM3X3flpmvFjvH-26" edge="1">
          <mxGeometry relative="1" as="geometry" />
        </mxCell>
        <mxCell id="tbGh9AGM3X3flpmvFjvH-19" value="" style="edgeStyle=orthogonalEdgeStyle;rounded=0;orthogonalLoop=1;jettySize=auto;html=1;" parent="77e6c97f196da883-3" source="tbGh9AGM3X3flpmvFjvH-14" target="tbGh9AGM3X3flpmvFjvH-18" edge="1">
          <mxGeometry relative="1" as="geometry" />
        </mxCell>
        <mxCell id="tbGh9AGM3X3flpmvFjvH-36" value="是否关注" style="rhombus;whiteSpace=wrap;html=1;rounded=0;glass=0;" parent="77e6c97f196da883-3" vertex="1">
          <mxGeometry x="160" y="880" width="80" height="80" as="geometry" />
        </mxCell>
        <mxCell id="tbGh9AGM3X3flpmvFjvH-37" value="" style="edgeStyle=orthogonalEdgeStyle;rounded=0;orthogonalLoop=1;jettySize=auto;html=1;" parent="77e6c97f196da883-3" source="tbGh9AGM3X3flpmvFjvH-28" target="tbGh9AGM3X3flpmvFjvH-36" edge="1">
          <mxGeometry relative="1" as="geometry" />
        </mxCell>
        <mxCell id="tbGh9AGM3X3flpmvFjvH-42" value="生成关注二维码" style="whiteSpace=wrap;html=1;rounded=0;glass=0;" parent="77e6c97f196da883-3" vertex="1">
          <mxGeometry x="140" y="1010" width="120" height="60" as="geometry" />
        </mxCell>
        <mxCell id="tbGh9AGM3X3flpmvFjvH-43" value="N" style="edgeStyle=orthogonalEdgeStyle;rounded=0;orthogonalLoop=1;jettySize=auto;html=1;" parent="77e6c97f196da883-3" source="tbGh9AGM3X3flpmvFjvH-36" target="tbGh9AGM3X3flpmvFjvH-42" edge="1">
          <mxGeometry relative="1" as="geometry" />
        </mxCell>
        <mxCell id="tbGh9AGM3X3flpmvFjvH-59" value="&lt;span&gt;关注通知&lt;/span&gt;" style="whiteSpace=wrap;html=1;rounded=0;glass=0;" parent="77e6c97f196da883-3" vertex="1">
          <mxGeometry x="130" y="1323" width="120" height="60" as="geometry" />
        </mxCell>
        <mxCell id="E-tGQFFWKvSWQlXz0ZTV-6" value="存入session&lt;br&gt;302跳转" style="rounded=1;whiteSpace=wrap;html=1;dashed=1;" parent="77e6c97f196da883-3" vertex="1">
          <mxGeometry x="20" y="485" width="90" height="670" as="geometry" />
        </mxCell>
        <mxCell id="tbGh9AGM3X3flpmvFjvH-23" value="" style="edgeStyle=orthogonalEdgeStyle;rounded=0;orthogonalLoop=1;jettySize=auto;html=1;" parent="77e6c97f196da883-1" source="tbGh9AGM3X3flpmvFjvH-20" target="tbGh9AGM3X3flpmvFjvH-22" edge="1">
          <mxGeometry relative="1" as="geometry" />
        </mxCell>
        <mxCell id="77e6c97f196da883-4" value="中台" style="swimlane;html=1;startSize=20;" parent="77e6c97f196da883-1" vertex="1">
          <mxGeometry x="520" y="20" width="190" height="1690" as="geometry" />
        </mxCell>
        <mxCell id="tbGh9AGM3X3flpmvFjvH-16" value="..." style="whiteSpace=wrap;html=1;rounded=0;glass=0;" parent="77e6c97f196da883-4" vertex="1">
          <mxGeometry x="40" y="370" width="120" height="60" as="geometry" />
        </mxCell>
        <mxCell id="tbGh9AGM3X3flpmvFjvH-55" value="关注通知" style="whiteSpace=wrap;html=1;rounded=0;glass=0;" parent="77e6c97f196da883-4" vertex="1">
          <mxGeometry x="35" y="1323" width="120" height="60" as="geometry" />
        </mxCell>
        <mxCell id="tbGh9AGM3X3flpmvFjvH-57" value="推送消息" style="whiteSpace=wrap;html=1;rounded=0;glass=0;" parent="77e6c97f196da883-4" vertex="1">
          <mxGeometry x="30" y="1463" width="120" height="60" as="geometry" />
        </mxCell>
        <mxCell id="77e6c97f196da883-5" value="微信服务器" style="swimlane;html=1;startSize=20;" parent="77e6c97f196da883-1" vertex="1">
          <mxGeometry x="710" y="20" width="160" height="1690" as="geometry" />
        </mxCell>
        <mxCell id="tbGh9AGM3X3flpmvFjvH-12" value="..." style="whiteSpace=wrap;html=1;rounded=0;glass=0;" parent="77e6c97f196da883-5" vertex="1">
          <mxGeometry x="30" y="250" width="120" height="60" as="geometry" />
        </mxCell>
        <mxCell id="tbGh9AGM3X3flpmvFjvH-22" value="...." style="whiteSpace=wrap;html=1;rounded=0;glass=0;" parent="77e6c97f196da883-5" vertex="1">
          <mxGeometry x="20" y="590" width="120" height="60" as="geometry" />
        </mxCell>
        <mxCell id="tbGh9AGM3X3flpmvFjvH-34" value="..." style="whiteSpace=wrap;html=1;rounded=0;glass=0;" parent="77e6c97f196da883-5" vertex="1">
          <mxGeometry x="20" y="790" width="120" height="60" as="geometry" />
        </mxCell>
        <mxCell id="tbGh9AGM3X3flpmvFjvH-53" value="..." style="whiteSpace=wrap;html=1;rounded=0;glass=0;" parent="77e6c97f196da883-5" vertex="1">
          <mxGeometry x="20" y="1223" width="120" height="60" as="geometry" />
        </mxCell>
        <mxCell id="tbGh9AGM3X3flpmvFjvH-61" value="..." style="whiteSpace=wrap;html=1;rounded=0;glass=0;" parent="77e6c97f196da883-5" vertex="1">
          <mxGeometry x="30" y="1463" width="120" height="60" as="geometry" />
        </mxCell>
        <mxCell id="tbGh9AGM3X3flpmvFjvH-70" value="..." style="whiteSpace=wrap;html=1;rounded=0;glass=0;" parent="77e6c97f196da883-5" vertex="1">
          <mxGeometry x="30" y="1010" width="120" height="60" as="geometry" />
        </mxCell>
        <mxCell id="tbGh9AGM3X3flpmvFjvH-11" value="" style="edgeStyle=orthogonalEdgeStyle;rounded=0;orthogonalLoop=1;jettySize=auto;html=1;" parent="77e6c97f196da883-1" source="tbGh9AGM3X3flpmvFjvH-4" target="tbGh9AGM3X3flpmvFjvH-10" edge="1">
          <mxGeometry relative="1" as="geometry" />
        </mxCell>
        <mxCell id="tbGh9AGM3X3flpmvFjvH-35" value="" style="edgeStyle=orthogonalEdgeStyle;rounded=0;orthogonalLoop=1;jettySize=auto;html=1;" parent="77e6c97f196da883-1" source="tbGh9AGM3X3flpmvFjvH-28" target="tbGh9AGM3X3flpmvFjvH-34" edge="1">
          <mxGeometry relative="1" as="geometry" />
        </mxCell>
        <mxCell id="tbGh9AGM3X3flpmvFjvH-39" value="Y" style="edgeStyle=orthogonalEdgeStyle;rounded=0;orthogonalLoop=1;jettySize=auto;html=1;" parent="77e6c97f196da883-1" source="tbGh9AGM3X3flpmvFjvH-36" target="tbGh9AGM3X3flpmvFjvH-38" edge="1">
          <mxGeometry relative="1" as="geometry" />
        </mxCell>
        <mxCell id="tbGh9AGM3X3flpmvFjvH-46" value="" style="edgeStyle=orthogonalEdgeStyle;rounded=0;orthogonalLoop=1;jettySize=auto;html=1;exitX=0.5;exitY=1;exitDx=0;exitDy=0;entryX=1;entryY=0.5;entryDx=0;entryDy=0;" parent="77e6c97f196da883-1" source="tbGh9AGM3X3flpmvFjvH-42" target="tbGh9AGM3X3flpmvFjvH-45" edge="1">
          <mxGeometry relative="1" as="geometry" />
        </mxCell>
        <mxCell id="tbGh9AGM3X3flpmvFjvH-47" style="edgeStyle=orthogonalEdgeStyle;rounded=0;orthogonalLoop=1;jettySize=auto;html=1;exitX=0;exitY=0.5;exitDx=0;exitDy=0;" parent="77e6c97f196da883-1" source="tbGh9AGM3X3flpmvFjvH-18" target="tbGh9AGM3X3flpmvFjvH-38" edge="1">
          <mxGeometry relative="1" as="geometry" />
        </mxCell>
        <mxCell id="tbGh9AGM3X3flpmvFjvH-48" value="N" style="edgeLabel;html=1;align=center;verticalAlign=middle;resizable=0;points=[];" parent="tbGh9AGM3X3flpmvFjvH-47" vertex="1" connectable="0">
          <mxGeometry x="0.1765" y="2" relative="1" as="geometry">
            <mxPoint as="offset" />
          </mxGeometry>
        </mxCell>
        <mxCell id="tbGh9AGM3X3flpmvFjvH-56" value="" style="edgeStyle=orthogonalEdgeStyle;rounded=0;orthogonalLoop=1;jettySize=auto;html=1;exitX=0.5;exitY=1;exitDx=0;exitDy=0;" parent="77e6c97f196da883-1" source="tbGh9AGM3X3flpmvFjvH-53" target="tbGh9AGM3X3flpmvFjvH-55" edge="1">
          <mxGeometry relative="1" as="geometry" />
        </mxCell>
        <mxCell id="tbGh9AGM3X3flpmvFjvH-60" value="" style="edgeStyle=orthogonalEdgeStyle;rounded=0;orthogonalLoop=1;jettySize=auto;html=1;" parent="77e6c97f196da883-1" source="tbGh9AGM3X3flpmvFjvH-55" target="tbGh9AGM3X3flpmvFjvH-59" edge="1">
          <mxGeometry relative="1" as="geometry" />
        </mxCell>
        <mxCell id="tbGh9AGM3X3flpmvFjvH-64" value="" style="edgeStyle=orthogonalEdgeStyle;rounded=0;orthogonalLoop=1;jettySize=auto;html=1;exitX=0.5;exitY=1;exitDx=0;exitDy=0;" parent="77e6c97f196da883-1" source="tbGh9AGM3X3flpmvFjvH-61" target="tbGh9AGM3X3flpmvFjvH-63" edge="1">
          <mxGeometry relative="1" as="geometry" />
        </mxCell>
        <mxCell id="tbGh9AGM3X3flpmvFjvH-58" value="" style="edgeStyle=orthogonalEdgeStyle;rounded=0;orthogonalLoop=1;jettySize=auto;html=1;exitX=0.5;exitY=1;exitDx=0;exitDy=0;" parent="77e6c97f196da883-1" source="tbGh9AGM3X3flpmvFjvH-59" target="tbGh9AGM3X3flpmvFjvH-57" edge="1">
          <mxGeometry relative="1" as="geometry" />
        </mxCell>
        <mxCell id="tbGh9AGM3X3flpmvFjvH-62" value="" style="edgeStyle=orthogonalEdgeStyle;rounded=0;orthogonalLoop=1;jettySize=auto;html=1;" parent="77e6c97f196da883-1" source="tbGh9AGM3X3flpmvFjvH-57" target="tbGh9AGM3X3flpmvFjvH-61" edge="1">
          <mxGeometry relative="1" as="geometry" />
        </mxCell>
        <mxCell id="tbGh9AGM3X3flpmvFjvH-71" value="" style="edgeStyle=orthogonalEdgeStyle;rounded=0;orthogonalLoop=1;jettySize=auto;html=1;" parent="77e6c97f196da883-1" source="tbGh9AGM3X3flpmvFjvH-42" target="tbGh9AGM3X3flpmvFjvH-70" edge="1">
          <mxGeometry relative="1" as="geometry" />
        </mxCell>
        <mxCell id="tbGh9AGM3X3flpmvFjvH-54" value="" style="edgeStyle=orthogonalEdgeStyle;rounded=0;orthogonalLoop=1;jettySize=auto;html=1;" parent="1" source="tbGh9AGM3X3flpmvFjvH-51" target="tbGh9AGM3X3flpmvFjvH-53" edge="1">
          <mxGeometry relative="1" as="geometry" />
        </mxCell>
        <mxCell id="tbGh9AGM3X3flpmvFjvH-51" value="关注" style="rhombus;whiteSpace=wrap;html=1;rounded=0;glass=0;dashed=1;" parent="1" vertex="1">
          <mxGeometry x="160" y="1273" width="80" height="80" as="geometry" />
        </mxCell>
        <mxCell id="tbGh9AGM3X3flpmvFjvH-52" value="" style="edgeStyle=orthogonalEdgeStyle;rounded=0;orthogonalLoop=1;jettySize=auto;html=1;exitX=0.5;exitY=1;exitDx=0;exitDy=0;" parent="1" source="tbGh9AGM3X3flpmvFjvH-45" target="tbGh9AGM3X3flpmvFjvH-51" edge="1">
          <mxGeometry relative="1" as="geometry">
            <mxPoint x="200" y="1203" as="sourcePoint" />
          </mxGeometry>
        </mxCell>
      </root>
    </mxGraphModel>
  </diagram>
</mxfile>
